<?xml version="1.0" standalone="no"?>
<!DOCTYPE svg PUBLIC "-//W3C//DTD SVG 20010904//EN"
 "http://www.w3.org/TR/2001/REC-SVG-20010904/DTD/svg10.dtd">
<svg version="1.0" xmlns="http://www.w3.org/2000/svg"
 width="1106.000000pt" height="928.000000pt" viewBox="0 0 1106.000000 928.000000"
 preserveAspectRatio="xMidYMid meet">

<g transform="translate(0.000000,928.000000) scale(0.100000,-0.100000)"
fill="#000000" stroke="none">
<path d="M0 4640 l0 -4640 5530 0 5530 0 0 4640 0 4640 -5530 0 -5530 0 0
-4640z m5593 4149 c12 -6 261 -250 554 -542 293 -292 534 -529 537 -527 2 3 6
82 8 175 5 184 10 206 65 257 15 14 46 31 68 37 54 15 1065 15 1117 0 51 -14
103 -69 117 -124 8 -30 11 -305 11 -892 l0 -848 922 -922 923 -923 -245 0
-245 0 -836 838 c-460 460 -843 848 -850 862 -11 20 -15 180 -19 845 l-5 820
-335 0 -335 0 -5 -310 c-4 -237 -8 -316 -19 -335 -50 -91 -155 -118 -242 -61
-24 16 -314 299 -644 630 -330 331 -604 601 -610 601 -5 0 -885 -875 -1955
-1945 l-1945 -1945 -243 2 -243 3 2143 2143 c1179 1179 2154 2150 2168 2158
30 16 113 18 143 3z m-1529 -3131 c12 -80 68 -2167 63 -2338 -19 -663 -230
-1088 -638 -1288 -176 -86 -361 -122 -625 -122 -305 0 -537 60 -749 195 -96
61 -232 207 -283 303 -118 224 -130 481 -37 828 28 104 96 290 108 294 16 5
277 -102 277 -114 0 -7 -14 -53 -31 -102 -131 -378 -113 -660 55 -842 169
-181 459 -266 803 -233 567 55 782 353 800 1111 3 149 -6 510 -31 1180 -19
531 -38 1009 -41 1063 l-6 97 165 0 165 0 5 -32z m1077 -647 c66 -41 94 -91
94 -168 0 -52 -4 -68 -30 -105 -86 -121 -253 -118 -330 6 -107 173 95 376 266
267z m1670 -264 c112 -60 142 -202 62 -298 -88 -104 -263 -86 -324 33 -87 171
94 354 262 265z m1963 -535 c184 -91 330 -280 403 -519 23 -76 26 -105 26
-218 0 -155 -19 -251 -67 -350 -39 -78 -121 -170 -189 -210 -235 -137 -609
-94 -958 112 l-86 50 -77 -83 c-43 -46 -97 -95 -120 -109 -101 -59 -303 -85
-523 -66 -157 14 -266 40 -338 81 -63 36 -138 109 -155 151 -12 27 -30 40 -30
20 0 -5 -30 -38 -67 -75 -132 -130 -273 -174 -565 -179 -131 -2 -176 2 -228
16 -73 20 -155 66 -203 114 -18 18 -35 33 -38 33 -4 0 -10 -17 -14 -37 -21
-117 -85 -260 -170 -378 -160 -222 -377 -401 -650 -535 -110 -54 -280 -120
-308 -120 -7 0 -29 46 -51 103 -21 56 -47 123 -57 148 l-18 47 92 32 c235 83
452 210 601 351 224 212 333 481 305 756 -17 162 -65 299 -194 550 l-72 143
136 71 c75 39 140 71 145 72 26 5 211 -416 297 -675 49 -149 102 -251 149
-289 81 -66 241 -93 415 -70 151 20 220 64 276 173 37 72 58 151 113 416 24
118 47 216 50 219 4 5 295 -45 304 -52 1 -1 -14 -78 -34 -171 -60 -284 -56
-420 14 -487 74 -71 255 -111 472 -105 155 5 203 23 283 107 77 80 114 143
233 389 117 242 183 348 276 441 84 85 136 119 232 153 74 26 91 29 192 26
108 -3 113 -4 198 -46z"/>
<path d="M8422 3904 c-99 -49 -188 -173 -307 -428 l-65 -140 50 -27 c173 -95
338 -143 495 -143 139 -1 197 17 254 79 91 98 93 262 6 434 -107 213 -278 302
-433 225z"/>
</g>
</svg>
